HIERARCHY
ROOT root
{
	OFFSET 0.000000 0.000000 0.000000
	CHANNELS 6 Xposition Yposition Zposition Zrotation Yrotation Xrotation
	JOINT lhip
	{
		OFFSET 0.058581 -0.082280 -0.017664
		CHANNELS 3 Zrotation Yrotation Xrotation
		JOINT lknee
		{
			OFFSET 0.043451 -0.386469 0.008037
			CHANNELS 3 Zrotation Yrotation Xrotation
			JOINT lankle
			{
				OFFSET -0.014790 -0.426874 -0.037428
				CHANNELS 3 Zrotation Yrotation Xrotation
				JOINT ltoe
				{
					OFFSET 0.041054 -0.060286 0.122042
					CHANNELS 3 Zrotation Yrotation Xrotation
					End Site
					{
						OFFSET 0.000000 0.000000 0.000000
					}
				}
			}
		}
	}
	JOINT rhip
	{
		OFFSET -0.060310 -0.090513 -0.013543
		CHANNELS 3 Zrotation Yrotation Xrotation
		JOINT rknee
		{
			OFFSET -0.043257 -0.383688 -0.004843
			CHANNELS 3 Zrotation Yrotation Xrotation
			JOINT rankle
			{
				OFFSET 0.019056 -0.420046 -0.034562
				CHANNELS 3 Zrotation Yrotation Xrotation
				JOINT rtoe
				{
					OFFSET -0.034840 -0.062106 0.130323
					CHANNELS 3 Zrotation Yrotation Xrotation
					End Site
					{
						OFFSET 0.000000 0.000000 0.000000
					}
				}
			}
		}
	}
	JOINT lowerback
	{
		OFFSET 0.004439 0.124404 -0.038385
		CHANNELS 3 Zrotation Yrotation Xrotation
		JOINT upperback
		{
			OFFSET 0.004488 0.137956 0.026820
			CHANNELS 3 Zrotation Yrotation Xrotation
			JOINT chest
			{
				OFFSET -0.002265 0.056032 0.002855
				CHANNELS 3 Zrotation Yrotation Xrotation
				JOINT lowerneck
				{
					OFFSET -0.013390 0.211636 -0.033468
					CHANNELS 3 Zrotation Yrotation Xrotation
					JOINT upperneck
					{
						OFFSET 0.010113 0.088937 0.050410
						CHANNELS 3 Zrotation Yrotation Xrotation
						End Site
						{
							OFFSET 0.000000 0.000000 0.000000
						}
					}
				}
				JOINT lclavicle
				{
					OFFSET 0.071702 0.114000 -0.018898
					CHANNELS 3 Zrotation Yrotation Xrotation
					JOINT lshoulder
					{
						OFFSET 0.122921 0.045205 -0.019046
						CHANNELS 3 Zrotation Yrotation Xrotation
						JOINT lelbow
						{
							OFFSET 0.255332 -0.015649 -0.022946
							CHANNELS 3 Zrotation Yrotation Xrotation
							JOINT lwrist
							{
								OFFSET 0.265709 0.012698 -0.007375
								CHANNELS 3 Zrotation Yrotation Xrotation
								End Site
								{
									OFFSET 0.000000 0.000000 0.000000
								}
							}
						}
					}
				}
				JOINT rclavicle
				{
					OFFSET -0.082954 0.112472 -0.023707
					CHANNELS 3 Zrotation Yrotation Xrotation
					JOINT rshoulder
					{
						OFFSET -0.113228 0.046853 -0.008472
						CHANNELS 3 Zrotation Yrotation Xrotation
						JOINT relbow
						{
							OFFSET -0.260127 -0.014369 -0.031269
							CHANNELS 3 Zrotation Yrotation Xrotation
							JOINT rwrist
							{
								OFFSET -0.269108 0.006794 -0.006027
								CHANNELS 3 Zrotation Yrotation Xrotation
								End Site
								{
									OFFSET 0.000000 0.000000 0.000000
								}
							}
						}
					}
				}
			}
		}
	}
}
MOTION
Frames: 5
Frame Time: 0.033333
-2.059351 0.691505 1.003245 14.202234 -1.132039 83.981844 2.999966 -13.098943 -15.750351 -15.411330 -23.067495 32.624958 -2.073760 -5.099894 -8.991703 0.000000 -0.000000 0.000000 2.990960 -0.247602 2.746059 -3.293089 3.801342 12.194696 0.588564 -9.597032 -17.518216 0.000000 -0.000000 0.000000 -1.218338 5.195686 13.521702 -0.790983 -4.165426 -0.091219 1.042475 -1.249721 1.272712 -3.188006 32.229536 -5.329039 -2.798082 29.274274 -4.474084 -19.555858 -12.139025 -0.472084 -57.913056 -16.829633 10.166223 7.103760 -18.079597 5.854171 -2.519514 0.263621 -11.842600 13.263646 3.046638 6.112027 60.949733 -3.165788 15.170673 -10.747098 29.028071 16.604046 8.087431 -1.223870 -4.896361 
-2.066589 0.697819 1.002956 19.048781 -1.446610 83.813600 2.483836 -12.147781 -17.192289 -14.682200 -20.196407 32.318986 -3.086547 -4.909199 -7.883154 0.000000 -0.000000 0.000000 3.586312 -0.989636 2.976457 -4.026161 1.386958 11.396974 -0.515249 -11.741979 -17.690391 0.000000 -0.000000 0.000000 -1.067109 5.051342 14.397230 -0.978175 -4.549331 -0.713109 1.131504 -1.453426 1.440445 -3.915177 30.388692 -4.882932 -2.610417 28.482323 -4.600944 -20.020547 -12.052824 -0.246828 -58.366329 -16.829220 8.861131 8.341854 -15.606063 3.689485 0.482022 0.169822 -11.175213 13.454953 3.008631 6.181843 59.854055 -2.970635 14.644639 -10.793677 29.612327 17.704793 4.389156 -0.712104 -1.924259 
-2.073818 0.703975 1.002324 23.172654 -1.337913 84.012908 2.826517 -10.207966 -18.485374 -14.221851 -16.735255 31.666886 -3.831639 -4.684663 -8.411107 0.000000 -0.000000 0.000000 4.261661 -2.182709 2.184451 -4.516023 -0.258695 11.655777 -1.734438 -13.093669 -18.162762 0.000000 -0.000000 0.000000 -0.671701 4.988260 14.499866 -0.981264 -4.781481 -0.882850 1.135263 -1.712515 1.738150 -4.564104 28.781131 -5.052175 -2.594895 27.661336 -4.431858 -20.552842 -11.890564 0.182282 -58.569225 -16.591989 7.624115 8.918871 -14.083500 1.862377 1.883410 0.650618 -11.145093 13.743240 2.991662 6.095978 58.905088 -2.627378 13.999905 -10.965729 30.691875 17.259953 3.032384 -0.051360 -1.376156 
-2.079403 0.709323 1.001361 26.751244 -1.434791 84.065632 2.790372 -8.192388 -18.560685 -12.995433 -11.916004 30.573055 -1.979310 -2.347228 -10.985767 0.000000 -0.000000 0.000000 4.227629 -2.925729 1.337657 -4.434645 -2.003013 12.473363 -1.844236 -13.916018 -18.647782 0.000000 -0.000000 0.000000 -0.421696 4.825448 14.636836 -1.005838 -4.745666 -1.052118 0.966277 -1.893565 1.871619 -4.482271 27.492521 -5.035480 -2.639645 26.691131 -3.854806 -21.131276 -11.735059 0.603510 -58.439722 -15.957950 6.795366 8.643889 -13.062820 1.400889 1.745592 0.949131 -10.425551 14.090239 2.833462 6.169750 58.712663 -2.093238 13.555534 -11.717801 31.719013 15.482513 2.295840 0.356510 -1.634629 
-2.084613 0.712959 1.000615 29.921883 -1.426911 83.945918 2.700462 -5.558729 -17.796375 -10.380764 -6.111876 30.180182 -0.026358 1.365992 -13.666354 0.000000 -0.000000 0.000000 4.474241 -3.230425 1.041411 -4.622904 -3.798165 12.793991 -1.912311 -14.588787 -18.646482 0.000000 -0.000000 0.000000 -0.381452 4.427071 14.791101 -1.139717 -4.556124 -1.247546 0.883973 -1.918944 2.135410 -4.043550 26.219204 -4.954118 -2.568547 26.017281 -3.438503 -21.651305 -11.106069 0.909686 -58.044831 -15.123148 6.171756 7.515102 -13.054178 2.324084 0.900464 0.880388 -9.519826 14.627661 2.544212 5.770630 59.003635 -1.333084 13.373852 -12.316122 32.400326 13.597267 2.248509 0.704039 -1.596641 
